<mxfile host="Electron" agent="Mozilla/5.0 (Windows NT 10.0; Win64; x64) AppleWebKit/537.36 (KHTML, like Gecko) draw.io/26.1.1 Chrome/132.0.6834.210 Electron/34.3.3 Safari/537.36" version="26.1.1">
  <diagram name="PÃ¡gina-1" id="qoeQH66abesUYm4jTpTn">
    <mxGraphModel dx="1020" dy="504" grid="1" gridSize="10" guides="1" tooltips="1" connect="1" arrows="1" fold="1" page="1" pageScale="1" pageWidth="827" pageHeight="1169" math="0" shadow="0">
      <root>
        <mxCell id="0" />
        <mxCell id="1" parent="0" />
        <mxCell id="7a81lDwzU7z2IchHKS0u-1" style="edgeStyle=orthogonalEdgeStyle;rounded=0;orthogonalLoop=1;jettySize=auto;html=1;exitX=0.5;exitY=1;exitDx=0;exitDy=0;entryX=0.5;entryY=0;entryDx=0;entryDy=0;" edge="1" parent="1" source="7a81lDwzU7z2IchHKS0u-2" target="7a81lDwzU7z2IchHKS0u-5">
          <mxGeometry relative="1" as="geometry" />
        </mxCell>
        <mxCell id="7a81lDwzU7z2IchHKS0u-2" value="" style="rounded=1;whiteSpace=wrap;html=1;" vertex="1" parent="1">
          <mxGeometry x="265" y="140" width="120" height="60" as="geometry" />
        </mxCell>
        <mxCell id="7a81lDwzU7z2IchHKS0u-3" value="Inicio" style="text;html=1;align=center;verticalAlign=middle;whiteSpace=wrap;rounded=0;" vertex="1" parent="1">
          <mxGeometry x="295" y="155" width="60" height="30" as="geometry" />
        </mxCell>
        <mxCell id="7a81lDwzU7z2IchHKS0u-4" style="edgeStyle=orthogonalEdgeStyle;rounded=0;orthogonalLoop=1;jettySize=auto;html=1;exitX=0.5;exitY=1;exitDx=0;exitDy=0;" edge="1" parent="1" source="7a81lDwzU7z2IchHKS0u-5">
          <mxGeometry relative="1" as="geometry">
            <mxPoint x="325" y="320" as="targetPoint" />
          </mxGeometry>
        </mxCell>
        <mxCell id="7a81lDwzU7z2IchHKS0u-5" value="" style="rounded=0;whiteSpace=wrap;html=1;" vertex="1" parent="1">
          <mxGeometry x="265" y="240" width="120" height="60" as="geometry" />
        </mxCell>
        <mxCell id="7a81lDwzU7z2IchHKS0u-6" value="declara variable &quot;a&quot; como entero" style="text;html=1;align=center;verticalAlign=middle;whiteSpace=wrap;rounded=0;" vertex="1" parent="1">
          <mxGeometry x="270" y="255" width="110" height="30" as="geometry" />
        </mxCell>
        <mxCell id="7a81lDwzU7z2IchHKS0u-7" style="edgeStyle=orthogonalEdgeStyle;rounded=0;orthogonalLoop=1;jettySize=auto;html=1;exitX=0.5;exitY=1;exitDx=0;exitDy=0;entryX=0.5;entryY=0;entryDx=0;entryDy=0;" edge="1" parent="1" source="7a81lDwzU7z2IchHKS0u-8">
          <mxGeometry relative="1" as="geometry">
            <mxPoint x="327.5" y="520" as="targetPoint" />
          </mxGeometry>
        </mxCell>
        <mxCell id="7a81lDwzU7z2IchHKS0u-8" value="" style="shape=manualInput;whiteSpace=wrap;html=1;" vertex="1" parent="1">
          <mxGeometry x="250" y="420" width="150" height="80" as="geometry" />
        </mxCell>
        <mxCell id="7a81lDwzU7z2IchHKS0u-9" value="Introduzca el primer numero (a)" style="text;html=1;align=center;verticalAlign=middle;whiteSpace=wrap;rounded=0;" vertex="1" parent="1">
          <mxGeometry x="261" y="460" width="124" height="30" as="geometry" />
        </mxCell>
        <mxCell id="7a81lDwzU7z2IchHKS0u-10" style="edgeStyle=orthogonalEdgeStyle;rounded=0;orthogonalLoop=1;jettySize=auto;html=1;exitX=0.5;exitY=1;exitDx=0;exitDy=0;entryX=0.5;entryY=0;entryDx=0;entryDy=0;" edge="1" parent="1" source="7a81lDwzU7z2IchHKS0u-11" target="7a81lDwzU7z2IchHKS0u-8">
          <mxGeometry relative="1" as="geometry" />
        </mxCell>
        <mxCell id="7a81lDwzU7z2IchHKS0u-11" value="" style="shape=parallelogram;perimeter=parallelogramPerimeter;whiteSpace=wrap;html=1;fixedSize=1;" vertex="1" parent="1">
          <mxGeometry x="215" y="325" width="220" height="60" as="geometry" />
        </mxCell>
        <mxCell id="7a81lDwzU7z2IchHKS0u-12" value="Mostrar en pantalla &quot;Ingrese un numero para generar su tabla&quot;" style="text;html=1;align=center;verticalAlign=middle;whiteSpace=wrap;rounded=0;" vertex="1" parent="1">
          <mxGeometry x="255" y="340" width="145" height="30" as="geometry" />
        </mxCell>
        <mxCell id="7a81lDwzU7z2IchHKS0u-13" value="" style="rounded=1;whiteSpace=wrap;html=1;" vertex="1" parent="1">
          <mxGeometry x="275" y="850" width="120" height="60" as="geometry" />
        </mxCell>
        <mxCell id="7a81lDwzU7z2IchHKS0u-14" value="Fin" style="text;html=1;align=center;verticalAlign=middle;whiteSpace=wrap;rounded=0;" vertex="1" parent="1">
          <mxGeometry x="303" y="865" width="60" height="30" as="geometry" />
        </mxCell>
        <mxCell id="7a81lDwzU7z2IchHKS0u-22" style="edgeStyle=orthogonalEdgeStyle;rounded=0;orthogonalLoop=1;jettySize=auto;html=1;exitX=0.5;exitY=1;exitDx=0;exitDy=0;entryX=0.5;entryY=0;entryDx=0;entryDy=0;" edge="1" parent="1" source="7a81lDwzU7z2IchHKS0u-23" target="7a81lDwzU7z2IchHKS0u-13">
          <mxGeometry relative="1" as="geometry" />
        </mxCell>
        <mxCell id="7a81lDwzU7z2IchHKS0u-23" value="" style="shape=parallelogram;perimeter=parallelogramPerimeter;whiteSpace=wrap;html=1;fixedSize=1;" vertex="1" parent="1">
          <mxGeometry x="275" y="760" width="120" height="60" as="geometry" />
        </mxCell>
        <mxCell id="7a81lDwzU7z2IchHKS0u-24" value="Mostrar tabla de a" style="text;html=1;align=center;verticalAlign=middle;whiteSpace=wrap;rounded=0;" vertex="1" parent="1">
          <mxGeometry x="305" y="770" width="60" height="30" as="geometry" />
        </mxCell>
        <mxCell id="7a81lDwzU7z2IchHKS0u-27" value="&lt;h1 style=&quot;margin-top: 0px;&quot;&gt;&lt;div&gt;&lt;font style=&quot;font-size: 14px;&quot;&gt;Randy Paniagua&lt;/font&gt;&lt;/div&gt;&lt;/h1&gt;" style="text;html=1;whiteSpace=wrap;overflow=hidden;rounded=0;" vertex="1" parent="1">
          <mxGeometry x="492.63" y="135" width="116.75" height="50" as="geometry" />
        </mxCell>
        <mxCell id="7a81lDwzU7z2IchHKS0u-30" style="edgeStyle=orthogonalEdgeStyle;rounded=0;orthogonalLoop=1;jettySize=auto;html=1;exitX=0.5;exitY=1;exitDx=0;exitDy=0;entryX=0.5;entryY=0;entryDx=0;entryDy=0;" edge="1" parent="1" source="7a81lDwzU7z2IchHKS0u-28" target="7a81lDwzU7z2IchHKS0u-23">
          <mxGeometry relative="1" as="geometry" />
        </mxCell>
        <mxCell id="7a81lDwzU7z2IchHKS0u-28" value="" style="rounded=0;whiteSpace=wrap;html=1;" vertex="1" parent="1">
          <mxGeometry x="267.5" y="520" width="120" height="210" as="geometry" />
        </mxCell>
        <mxCell id="7a81lDwzU7z2IchHKS0u-29" value="&lt;div&gt;generar tabla&lt;/div&gt;&lt;div style=&quot;&quot;&gt;&lt;span style=&quot;background-color: transparent; color: light-dark(rgb(0, 0, 0), rgb(255, 255, 255));&quot;&gt;a x 1&amp;nbsp;&lt;/span&gt;&lt;/div&gt;&lt;div&gt;&lt;span style=&quot;background-color: transparent; color: light-dark(rgb(0, 0, 0), rgb(255, 255, 255));&quot;&gt;a x 2&lt;/span&gt;&lt;/div&gt;&lt;div&gt;a x 3&lt;/div&gt;&lt;div&gt;a x 4&lt;/div&gt;&lt;div&gt;a x 5&lt;/div&gt;&lt;div&gt;a x 6&lt;/div&gt;&lt;div&gt;a x 7&lt;/div&gt;&lt;div&gt;a x 8&lt;/div&gt;&lt;div&gt;a x 9&lt;/div&gt;&lt;div&gt;a x 10&lt;/div&gt;" style="text;html=1;align=left;verticalAlign=middle;whiteSpace=wrap;rounded=0;" vertex="1" parent="1">
          <mxGeometry x="290" y="532.5" width="90" height="185" as="geometry" />
        </mxCell>
      </root>
    </mxGraphModel>
  </diagram>
</mxfile>
